# AST/ASF file generated using VICON BodyLanguage
# -----------------------------------------------
:version 1.10
:name VICON
:units
  mass 1.0
  length 0.45
  angle deg
:documentation
   .ast/.asf automatically generated from VICON data using
   VICON BodyBuilder and BodyLanguage model FoxedUp or BRILLIANT.MOD
:root
   order TX TY TZ RX RY RZ
   axis XYZ
   position 0 0 0  
   orientation 0 0 0 
:bonedata
  begin
     id 1 
     name lhipjoint
     direction 0.662698 -0.695252 0.27831 
     length 2.53073 
     axis 0 0 0  XYZ
  end
  begin
     id 2 
     name lfemur
     direction 0.34202 -0.939693 0  
     length 7.16147  
     axis 0 0 20  XYZ
    dof rx ry rz
    limits (-160.0 20.0)
           (-70.0 70.0)
           (-60.0 70.0)
  end
  begin
     id 3 
     name ltibia
     direction 0.34202 -0.939693 0   
     length 7.63967   
     axis 0 0 20   XYZ
    dof rx
    limits (-10.0 170.0)
  end
  begin
     id 4 
     name lfoot
     direction 0.0938457 -0.257721 0.961651   
     length 1.89793   
     axis -90 7.62852e-016 20   XYZ
    dof rx rz
    limits (-45.0 90.0)
           (-70.0 20.0)
  end
  begin
     id 5 
     name ltoes
     direction -0.00116841 -0.0030592 0.999995   
     length 0.955649   
     axis -90 7.62852e-016 20   XYZ
    dof rx
    limits (-90.0 20.0)
  end
  begin
     id 6 
     name rhipjoint
     direction -0.649445 -0.705948 0.282592   
     length 2.49238  
     axis 0 0 0  XYZ 
  end
  begin
     id 7 
     name rfemur
     direction -0.34202 -0.939693 0   
     length 6.90728   
     axis 0 0 -20   XYZ
    dof rx ry rz
    limits (-160.0 20.0)
           (-70.0 70.0)
           (-70.0 60.0)
  end
  begin
     id 8 
     name rtibia
     direction -0.34202 -0.939693 0   
     length 7.72868   
     axis 0 0 -20   XYZ
    dof rx
    limits (-10.0 170.0)
 end
 begin
     id 9 
     name rfoot
     direction -0.0920068 -0.252865 0.963117   
     length 1.97476  
     axis -90 -7.62852e-016 -20   XYZ
    dof rx rz
    limits (-45.0 90.0)
           (-20.0 70.0)
  end
  begin
     id 10 
     name rtoes
     direction 0.000391322 0.00230649 0.999997   
     length 0.992641   
     axis -90 -7.62852e-016 -20   XYZ
    dof rx
    limits (-90.0 20.0)
  end
  begin
     id 11 
     name lowerback
     direction -0.00875327 0.998321 -0.0572635   
     length 2.20024   
     axis 0 0 0   XYZ
    dof rx ry rz
    limits (-20.0 45.0)
           (-30.0 30.0)
           (-30.0 30.0)
  end
  begin
     id 12 
     name upperback
     direction 0.00753931 0.999972 -0.000360425   
     length 2.20538   
     axis 0 0 0   XYZ
    dof rx ry rz
    limits (-20.0 45.0)
           (-30.0 30.0)
           (-30.0 30.0)
  end
  begin
     id 13 
     name thorax
     direction 0.0117767 0.999601 0.0256663   
     length 2.21508   
     axis 0 0 0   XYZ
    dof rx ry rz
    limits (-20.0 45.0)
           (-30.0 30.0)
           (-30.0 30.0)
  end
  begin
     id 14 
     name lowerneck
     direction 0.060228 0.994909 0.0807986   
     length 1.7607   
     axis 0 0 0   XYZ
    dof rx ry rz
    limits (-20.0 45.0)
           (-30.0 30.0)
           (-30.0 30.0)
  end
  begin
     id 15 
     name upperneck
     direction -0.0563647 0.959594 -0.275685   
     length 1.75612   
     axis 0 0 0   XYZ
    dof rx ry rz
    limits (-20.0 45.0)
           (-30.0 30.0)
           (-30.0 30.0)
  end
  begin
     id 16
     name head
     direction -0.0161544 0.99458 -0.102714  
     length 1.79288  
     axis 0 0 0   XYZ
    dof rx ry rz
    limits (-20.0 45.0)
           (-30.0 30.0)
           (-30.0 30.0)
  end
  begin
     id 17 
     name lclavicle
     direction 0.93913 0.332189 -0.087669  
     length 3.52087  
     axis 0 0 0   XYZ
    dof ry rz
    limits (-20.0 10.0)
           (0.0 20.0)
  end
  begin
     id 18 
     name lhumerus
     direction 1 -4.48974e-011 -2.70836e-027   
     length 5.35289   
     axis -180 -30 -90   XYZ
    dof rx ry rz
    limits (-60.0 90.0)
           (-90.0 90.0)
           (-90.0 90.0)
  end
  begin
     id 19
     name lradius
     direction 1 -4.48961e-011 -9.76021e-027   
     length 3.27727   
     axis -180 -30 -90   XYZ
    dof rx
    limits (-10.0 170.0)
  end
  begin
     id 20
     name lwrist
     direction 1 -4.49103e-011 -2.23668e-026   
     length 1.63864   
     axis 1.44924e-014 90 90   XYZ
    dof ry
    limits (-180.0 0.0)
 end
  begin
     id 21 
     name lhand
     direction 1 3.0697e-005 0.000161777   
     length 0.54443   
     axis 2.85318e-014 90 90   XYZ
    dof rx rz
    limits (-90.0 90.0)
           (-45.0 45.0)
  end
  begin
     id 22 
     name lfingers
     direction 1 -4.49027e-011 -8.9447e-026   
     length 0.438912   
     axis 5.70628e-014 90 90   XYZ
    dof rx
    limits (0.0 90.0)
  end
  begin
     id 23
     name lthumb
     direction 0.707058 2.6516e-005 0.707156   
     length 0.630274   
     axis -90 45 -3.53137e-014   XYZ
    dof rx rz
    limits (-45.0 45.0)
           (-45.0 45.0)
  end
  begin
     id 24 
     name rclavicle
     direction -0.95274 0.284984 -0.105215   
     length 3.43401  
     axis 0 0 0   XYZ 
    dof ry rz
    limits (-10.0 20.0)
           (-20.0 0.0)
  end
  begin
     id 25 
     name rhumerus
     direction -0.999999 -0.000575019 -0.00106829  
     length 5.52077   
     axis -180 30 90   XYZ
    dof rx ry rz
    limits (-90.0 60.0)
           (-90.0 90.0)
           (-90.0 90.0)
  end
  begin
     id 26 
     name rradius
     direction -1 -4.4879e-011 -6.35415e-027   
     length 3.32364   
     axis -180 30 90   XYZ
    dof rx
    limits (-10.0 170.0)
  end
  begin
     id 27 
     name rwrist
     direction -1 -4.49048e-011 -9.98542e-027   
     length 1.66182   
     axis 6.32482e-015 -90 -90   XYZ
    dof ry
    limits (-180.0 0.0)
  end
  begin
     id 28
     name rhand
     direction -1 -4.48978e-011 -1.99771e-026   
     length 0.732235   
     axis 1.27479e-014 -90 -90   XYZ
    dof rx rz
    limits (-90.0 90.0)
           (-45.0 45.0)
  end
  begin
     id 29
     name rfingers
     direction -1 -4.49144e-011 -3.99245e-026   
     length 0.590347   
     axis 2.5496e-014 -90 -90   XYZ
    dof rx
    limits (0.0 90.0)
  end
  begin
     id 30
     name rthumb
     direction -0.707107 -6.35121e-011 0.707107   
     length 0.847624   
     axis -90 -45 -2.82974e-014   XYZ
    dof rx rz
    limits (-45.0 45.0)
           (-45.0 45.0)
  end
:hierarchy
  begin
    root lhipjoint rhipjoint lowerback
    lhipjoint lfemur
    lfemur ltibia
    ltibia lfoot
    lfoot ltoes
    rhipjoint rfemur
    rfemur rtibia
    rtibia rfoot
    rfoot rtoes
    lowerback upperback
    upperback thorax
    thorax lowerneck lclavicle rclavicle
    lowerneck upperneck
    upperneck head
    lclavicle lhumerus
    lhumerus lradius
    lradius lwrist
    lwrist lhand lthumb
    lhand lfingers
    rclavicle rhumerus
    rhumerus rradius
    rradius rwrist
    rwrist rhand rthumb
    rhand rfingers
  end

#!OML:ASF G:\Work\Work\Patient Classification 1\Elijah\terrain1\Elijah.ASF
:FULLY-SPECIFIED
:DEGREES
3542
root 4.81038 21.3022 3.30567 186.147 -1.3832 -187.514
lowerback 5.32723 -0.921383 -5.61891
upperback 2.27832 -1.60865 1.41172
thorax -0.439787 -0.898213 4.70674
lowerneck -16.0921 8.8675 12.861
upperneck 30.0324 15.7206 -11.4338
head 15.1646 7.57146 -3.73954
rclavicle 2.16675e-014 1.27222e-014
rhumerus -40.6064 -1.3979 -80.1932
rradius 28.9468
rwrist 1.44248
rhand -10.833 22.3576
rfingers 7.12502
rthumb 15.1813 -7.06545
lclavicle 2.16675e-014 1.27222e-014
lhumerus -37.4749 -9.5511 89.8143
lradius 63.1412
lwrist 10.1467
lhand -17.3528 26.439
lfingers 7.12502
lthumb 8.8949 56.2315
rfemur -42.0297 -2.718 18.201
rtibia 49.9116
rfoot -15.2723 -7.10466
rtoes -11.8173
lfemur -4.51185 1.71327 -27.787
ltibia 61.5078
lfoot 8.21414 -18.122
ltoes 0.358418
3543
root 4.82896 21.2825 3.16978 186.207 -1.66232 -187.243
lowerback 5.30465 -0.925423 -5.19014
upperback 2.5707 -1.60714 1.35726
thorax -0.140667 -0.91824 4.40185
lowerneck -16.2116 8.95506 13.6607
upperneck 29.8385 15.6544 -11.8611
head 15.2246 7.55708 -4.05977
rclavicle 1.23246e-014 2.46493e-014
rhumerus -39.8117 -1.46711 -80.4884
rradius 29.6444
rwrist 1.1642
rhand -11.2237 22.9759
rfingers 7.12502
rthumb 14.805 -6.47529
lclavicle 1.23246e-014 2.46493e-014
lhumerus -37.0176 -9.73675 89.5953
lradius 62.0544
lwrist 10.2589
lhand -18.1647 26.2812
lfingers 7.12502
lthumb 8.11134 56.1055
rfemur -41.8537 -3.23866 18.7045
rtibia 50.4755
rfoot -15.8393 -7.06676
rtoes -12.0665
lfemur -6.36204 1.80493 -27.207
ltibia 64.5171
lfoot 9.58559 -17.7243
ltoes -0.957094
3544
root 4.85005 21.2725 3.03277 186.176 -1.89301 -186.81
lowerback 5.41524 -0.926425 -4.80713
upperback 2.78411 -1.61067 1.47029
thorax 0.00976827 -0.934085 4.30248
lowerneck -16.1134 8.96522 14.2159
upperneck 29.7005 15.6018 -12.2132
head 15.2283 7.55433 -4.31469
rclavicle 1.98785e-014 3.10104e-014
rhumerus -39.1741 -1.26677 -80.6676
rradius 30.381
rwrist 0.871185
rhand -11.4427 23.0063
rfingers 7.12502
rthumb 14.594 -6.46028
lclavicle 1.98785e-014 3.10104e-014
lhumerus -36.6781 -9.64389 89.5823
lradius 60.8271
lwrist 10.3991
lhand -18.7291 26.9724
lfingers 7.12502
lthumb 7.56668 56.8171
rfemur -41.5169 -3.6419 19.3371
rtibia 50.8995
rfoot -16.4799 -6.8884
rtoes -11.5211
lfemur -8.17782 1.94147 -26.4741
ltibia 67.573
lfoot 9.6098 -17.2649
ltoes -4.15888
3545
root 4.87196 21.2583 2.89616 186.074 -2.08352 -186.457
lowerback 5.6676 -0.982318 -4.75974
upperback 2.81627 -1.70242 1.68855
thorax -0.0818734 -0.983463 4.5138
lowerneck -15.3681 8.86317 14.6278
upperneck 29.5252 15.5897 -12.5629
head 15.0583 7.60812 -4.55859
rclavicle 2.38542e-015 -7.15625e-015
rhumerus -38.8729 -0.673243 -80.7822
rradius 31.2419
rwrist 0.512688
rhand -11.4007 22.8176
rfingers 7.12502
rthumb 14.6345 -6.64598
lclavicle 2.38542e-015 -7.15625e-015
lhumerus -36.771 -9.13635 89.7254
lradius 59.6421
lwrist 10.2413
lhand -18.4063 28.7331
lfingers 7.12502
lthumb 7.87824 58.5663
rfemur -41.0354 -3.97178 19.8815
rtibia 51.2269
rfoot -17.0639 -6.89409
rtoes -12.4047
lfemur -9.87771 2.06307 -25.8516
ltibia 70.6303
lfoot 8.63822 -16.5949
ltoes -5.5063
3546
root 4.89676 21.2445 2.77032 186.005 -2.42301 -186.053
lowerback 5.95955 -0.996126 -4.53108
upperback 2.84673 -1.72995 1.81275
thorax -0.213307 -0.996952 4.52314
lowerneck -14.8392 8.72992 15.0985
upperneck 29.4019 15.4336 -12.8106
head 14.9278 7.60244 -4.7941
rclavicle -1.92821e-014 -1.35174e-014
rhumerus -38.6504 -0.314182 -80.9666
rradius 32.2818
rwrist -0.0309812
rhand -11.5393 23.1507
rfingers 7.12502
rthumb 14.5009 -6.32255
lclavicle -1.92821e-014 -1.35174e-014
lhumerus -36.5958 -9.14069 89.8288
lradius 58.1258
lwrist 10.2626
lhand -18.2901 29.1529
lfingers 7.12502
lthumb 7.99036 58.9819
rfemur -40.5561 -4.24144 20.4687
rtibia 51.4924
rfoot -17.616 -7.07223
rtoes -13.1199
lfemur -11.757 2.05871 -25.1577
ltibia 73.6722
lfoot 7.08031 -16.3253
ltoes -6.38684
